<svg version="1.1" id="Layer_1" xmlns="http://www.w3.org/2000/svg" xmlns:xlink="http://www.w3.org/1999/xlink" x="0px" y="0px" viewBox="0 0 32.8 45.4" style="enable-background:new 0 0 32.8 45.4;" xml:space="preserve">
 <style type="text/css">
  .st0{fill-rule:evenodd;clip-rule:evenodd;fill:#F99F1C;}
 </style>
 <g>
  <path class="st0" d="M10.3,41.6H7.1l6.4-10.1c0,0,1-2.1-0.3-4.3L4.3,12.6c0,0-0.8-1.4,0-2.7L6.9,6l10.4,17c0,0,2.7,3.6-0.2,8
		L10.3,41.6z M17.9,38.5l3.9-5.9c0,0,1.1-2.4,4.1-2.4h4.1l2.9,4.5c0,0-2.3-0.2-3.3,1.4l-4.2,6.4c0,0-1.4,3-5.1,3H0.3l7.6-11.6
		c0,0,1.1-1.4-0.4-3.6L0.7,19.4c0,0-1.7-1.6,0.1-4.3l2-3l9.4,15.2c0,0,1.7,2.1,0,4.6l-7,11h14.8c0,0,1.7,0.3,3.1-1.8l3.7-5.7
		c0,0,0.8-1.9,2.7-2.7h-3c0,0-1.6,0.1-2.7,1.9l-3.3,5.1c0,0-1.2,2.1-3.8,2.1h-5.2l6.3-9.7c0,0,3.4-4.5,1-8.6L8.3,6.3
		c0,0-0.8-1.5,0.1-2.9L10.7,0l11.8,19c0,0,1.7,2.8,1.7,5c0,2.2-1.4,4.7-2.1,6l-5.2,8.1c0,0-0.6,0.8-0.2,1.1
		C17.1,39.5,17.5,39,17.9,38.5L17.9,38.5z">
  </path>
 </g>
</svg>